<svg version="1.1" id="Layer_1" xmlns="http://www.w3.org/2000/svg"
	xmlns:xlink="http://www.w3.org/1999/xlink" x="0px" y="0px"
	width="100%" viewBox="0 0 724 188" enable-background="new 0 0 724 188" xml:space="preserve">
<path fill="#4CE0B3" opacity="1.000000" stroke="none"
		d="
M124.159134,21.729355 
	C156.345337,40.044628 169.992111,76.882660 156.600540,111.010529 
	C147.768616,133.518311 130.925842,148.147949 107.645004,154.846207 
	C101.657112,156.569000 95.270439,157.609528 89.051430,157.685089 
	C74.107361,157.866684 60.835659,162.657562 48.434757,170.539474 
	C46.756001,171.606491 45.088448,172.715271 43.316402,173.607468 
	C31.613689,179.499695 16.454733,171.591171 16.225613,158.470108 
	C15.757894,131.685013 14.729856,104.745331 16.930517,78.117073 
	C20.121580,39.504818 51.327103,12.518639 90.216003,12.166470 
	C102.188942,12.058045 113.488358,15.337832 124.159134,21.729355 
M56.423283,96.297829 
	C54.967102,95.534416 53.580944,94.388527 52.036755,94.105820 
	C50.167377,93.763573 48.164333,94.151421 46.219131,94.223328 
	C46.615097,96.180176 46.829483,98.200195 47.479439,100.068687 
	C47.833447,101.086395 48.919979,101.852837 49.687370,102.722687 
	C60.841106,115.365669 75.486153,119.658806 91.642876,119.798798 
	C108.207703,119.942322 120.678284,111.796341 130.534912,99.176384 
	C131.425781,98.035759 131.266632,95.331741 130.509979,93.946434 
	C130.102829,93.201019 127.235657,93.260559 125.749611,93.761406 
	C123.103157,94.653351 120.711876,96.270340 118.128105,97.385338 
	C97.684387,106.207642 77.353706,106.038734 56.423283,96.297829 
z" />
<path fill="#4CE0B3" opacity="1.000000" stroke="none" 
	d="
M501.495056,155.141403 
	C501.344116,149.890442 501.169037,145.065918 501.165802,140.241257 
	C501.142151,105.080643 501.142242,69.919983 501.160828,34.759357 
	C501.165375,26.152477 505.548462,20.992512 512.727722,20.994425 
	C518.699036,20.996016 523.570007,24.591923 523.948730,30.627907 
	C524.583374,40.741837 524.404907,50.907711 524.530457,61.052200 
	C524.583313,65.323639 524.539246,69.596283 524.539246,73.838829 
	C530.491394,69.698128 535.664001,64.864525 541.772339,62.093971 
	C556.960815,55.204899 580.578064,57.709557 586.805420,79.857452 
	C588.763977,86.823181 589.680176,94.258308 589.868774,101.509918 
	C590.306213,118.328987 590.064575,135.167450 589.984924,151.997513 
	C589.946716,160.084259 585.166504,165.218521 578.117004,165.090424 
	C571.185303,164.964462 566.927185,160.169891 566.841553,152.086151 
	C566.658081,134.765259 566.663879,117.441887 566.382263,100.122948 
	C566.331909,97.027435 565.651855,93.812813 564.609314,90.885880 
	C560.714111,79.949715 549.949463,78.580376 538.936401,82.015511 
	C530.237000,84.728981 525.249695,91.459229 524.977783,100.600800 
	C524.507507,116.412094 524.652893,132.241684 524.538635,148.063599 
	C524.526550,149.729324 524.607056,151.403412 524.470398,153.059235 
	C523.867737,160.361465 520.335632,164.427307 514.185059,165.004242 
	C507.809845,165.602219 503.757965,162.575989 501.495056,155.141403 
z"/>
<path fill="#4CE0B3" opacity="1.000000" stroke="none" 
	d="
M613.457520,144.463470 
	C601.697754,124.185112 600.877380,103.815254 612.386902,83.732666 
	C623.716125,63.964584 648.612183,54.505188 671.070190,60.512180 
	C693.794617,66.590439 709.126404,85.731781 710.221436,108.778290 
	C711.330994,132.131180 702.955566,150.430695 681.878479,161.476746 
	C658.366333,173.798935 629.156311,166.334763 613.457520,144.463470 
M654.196838,145.456741 
	C659.796265,144.424850 666.074036,144.671936 670.871277,142.127640 
	C686.973938,133.587402 691.968689,111.512772 682.381104,94.831398 
	C675.575684,82.990707 661.654724,77.630722 648.522034,81.794472 
	C634.672791,86.185417 626.940552,99.277672 628.008301,116.527939 
	C628.948486,131.716751 638.627319,142.729324 654.196838,145.456741 
z"/>
<path fill="#4CE0B3" opacity="1.000000" stroke="none" 
	d="
M243.215637,165.398193 
	C233.103622,167.688782 223.305023,167.925735 213.745209,165.040619 
	C187.809113,157.213181 172.844604,132.915878 176.685883,105.078972 
	C179.541611,84.384056 190.719650,69.468933 210.182617,62.369370 
	C230.817093,54.842476 250.432693,58.317394 266.496460,73.933037 
	C293.579468,100.260513 285.919800,154.141006 243.215637,165.398193 
M256.813751,125.919701 
	C257.420929,123.004219 258.187683,120.111557 258.608307,117.169403 
	C260.723572,102.373535 252.477692,87.031395 240.083939,82.533897 
	C222.870163,76.287285 206.091080,84.823334 200.984970,102.424782 
	C196.720596,117.124657 201.710724,133.254837 212.976334,140.759247 
	C227.611053,150.507950 248.863358,145.804382 256.813751,125.919701 
z"/>
<path fill="#4CE0B3" opacity="1.000000" stroke="none" 
	d="
M362.010071,102.181015 
	C361.546692,88.477921 355.608032,81.062981 345.042236,80.537041 
	C329.876373,79.782143 319.389954,87.042374 318.626892,100.531624 
	C317.678467,117.297813 318.135956,134.144180 318.016296,150.956131 
	C317.986176,155.186584 317.665863,159.275864 314.111542,162.275620 
	C310.294098,165.497467 305.724396,166.067886 301.506195,164.168198 
	C297.489502,162.359238 294.816040,158.808929 294.824982,153.901794 
	C294.847748,141.410278 294.824951,128.918686 294.825348,116.427132 
	C294.825806,101.936928 294.675354,87.444389 294.891449,72.957352 
	C295.029846,63.676041 303.516541,58.132633 311.392334,62.015316 
	C316.544586,64.555298 318.188629,69.331009 318.110748,75.912292 
	C324.882294,67.985275 332.048218,62.080521 341.403198,60.092300 
	C357.926392,56.580608 374.016785,60.103733 380.164459,75.118332 
	C383.698914,83.750710 384.851593,93.718704 385.308533,103.170921 
	C386.103790,119.621391 385.603302,136.138458 385.495667,152.626633 
	C385.453583,159.073807 381.952209,163.574356 376.561615,164.802444 
	C371.331085,165.994049 365.830505,163.704681 363.618500,158.822922 
	C362.569733,156.508408 362.242554,153.704285 362.216431,151.115616 
	C362.053497,134.963577 362.068146,118.809738 362.010071,102.181015 
z"/>
<path fill="#4CE0B3" opacity="1.000000" stroke="none" 
	d="
M398.741028,102.743423 
	C401.825867,77.984802 422.015442,59.586994 446.472717,59.010258 
	C457.032166,58.761257 467.564667,59.302780 476.906403,64.883804 
	C480.026978,66.748138 482.953156,69.610901 484.838379,72.705559 
	C487.393066,76.899178 485.763672,83.601952 482.476593,86.499840 
	C479.207397,89.381943 473.604889,89.456261 469.094147,86.015213 
	C460.951385,79.803368 451.953033,79.235382 442.644135,81.809006 
	C428.945709,85.596207 420.224609,99.243233 421.238800,114.516396 
	C422.246857,129.697281 429.897217,140.837433 442.632843,144.375702 
	C451.848358,146.936005 460.965485,146.552429 469.290039,140.720749 
	C474.878113,136.806076 482.134705,137.849045 485.263824,142.621506 
	C488.739716,147.922867 487.523621,154.414352 481.680969,158.231812 
	C463.557922,170.072891 426.056061,173.806030 407.834076,146.922089 
	C398.826569,133.632812 396.597626,118.830528 398.741028,102.743423 
z"/>
</svg>